<mxfile host="app.diagrams.net" modified="2024-01-21T13:44:33.143Z" agent="Mozilla/5.0 (X11; Linux x86_64) AppleWebKit/537.36 (KHTML, like Gecko) Chrome/112.0.0.0 Safari/537.36" version="22.1.21" etag="CECEffgVn2IW1RRakEDa" type="github">
  <diagram name="Page-1" id="_MXeu-8D364wNL2OyEvm">
    <mxGraphModel>
      <root>
        <mxCell id="0" />
        <mxCell id="1" parent="0" />
      </root>
    </mxGraphModel>
  </diagram>
</mxfile>
